<?xml version="1.0" encoding="UTF-8"?>
<svg width="16px" height="24px" viewBox="0 0 16 24" version="1.1" xmlns="http://www.w3.org/2000/svg" xmlns:xlink="http://www.w3.org/1999/xlink">
    <!-- Generator: Sketch 47.1 (45422) - http://www.bohemiancoding.com/sketch -->
    <title>flash-24</title>
    <desc>Created with Sketch.</desc>
    <defs></defs>
    <g id="Page-1" stroke="none" stroke-width="1" fill="none" fill-rule="evenodd">
        <g id="flash-24" fill-rule="nonzero" fill="#6963FF">
            <path d="M15.882,7.528 C15.708,7.203 15.369,7 15,7 L10.326,7 L11.962,1.275 C12.048,0.973 11.988,0.649 11.799,0.398 C11.61,0.147 11.314,0 11,0 L4,0 C3.549,0 3.154,0.302 3.035,0.737 L0.035,11.737 C-0.047,12.038 0.016,12.36 0.205,12.607 C0.395,12.854 0.688,13 1,13 L5.802,13 L4.016,22.821 C3.931,23.287 4.185,23.749 4.625,23.927 C4.748,23.977 4.875,24 5,24 C5.327,24 5.643,23.84 5.833,23.555 L15.833,8.555 C16.037,8.248 16.056,7.854 15.882,7.528 Z" id="Shape"></path>
        </g>
    </g>
</svg>